<svg width="23" height="23" viewBox="0 0 23 23" fill="none" xmlns="http://www.w3.org/2000/svg">
<g clip-path="url(#clip0_2_218)">
<circle cx="11.5" cy="11.5" r="11.5" fill="white"/>
<path d="M17.0535 6.08875C16.0178 5.58012 14.9104 5.21048 13.7526 5C13.6104 5.26983 13.4443 5.63275 13.3298 5.92145C12.099 5.72718 10.8796 5.72718 9.67144 5.92145C9.55693 5.63275 9.38704 5.26983 9.24357 5C8.08454 5.21048 6.97584 5.58148 5.94013 6.09144C3.8511 9.40485 3.28479 12.636 3.56794 15.8212C4.9535 16.9072 6.29627 17.567 7.61638 17.9987C7.94233 17.5278 8.23302 17.0273 8.48345 16.4998C8.0065 16.3096 7.54969 16.0748 7.11805 15.8023C7.23256 15.7133 7.34457 15.6202 7.45279 15.5244C10.0855 16.8168 12.9459 16.8168 15.5472 15.5244C15.6566 15.6202 15.7686 15.7133 15.8819 15.8023C15.449 16.0762 14.9909 16.3109 14.514 16.5012C14.7644 17.0273 15.0538 17.5292 15.381 18C16.7024 17.5683 18.0464 16.9086 19.432 15.8212C19.7642 12.1287 18.8644 8.92726 17.0535 6.08875ZM8.84212 13.8623C8.05181 13.8623 7.4037 13.0879 7.4037 12.1449C7.4037 11.2019 8.03797 10.4261 8.84212 10.4261C9.64628 10.4261 10.2944 11.2005 10.2805 12.1449C10.2818 13.0879 9.64628 13.8623 8.84212 13.8623ZM14.1578 13.8623C13.3675 13.8623 12.7194 13.0879 12.7194 12.1449C12.7194 11.2019 13.3537 10.4261 14.1578 10.4261C14.962 10.4261 15.6101 11.2005 15.5962 12.1449C15.5962 13.0879 14.962 13.8623 14.1578 13.8623Z" fill="#460152"/>
</g>
<defs>
<clipPath id="clip0_2_218">
<rect width="23" height="23" fill="white"/>
</clipPath>
</defs>
</svg>
