<svg width="25" height="25" viewBox="0 0 25 25" fill="none" xmlns="http://www.w3.org/2000/svg">
<path d="M12.4996 1.72656C6.55936 1.72656 1.72656 6.55936 1.72656 12.4996C1.72656 18.4399 6.55936 23.2727 12.4996 23.2727C18.4399 23.2727 23.2727 18.4399 23.2727 12.4996C23.2727 6.55936 18.4399 1.72656 12.4996 1.72656ZM12.4996 21.3048C7.74763 21.3048 3.69776 17.2516 3.69776 12.4996C3.69776 7.74763 7.74763 3.70429 12.4996 3.70429C17.2516 3.70429 21.2917 7.74763 21.2917 12.4996C21.2917 17.2516 17.2516 21.3048 12.4996 21.3048Z" fill="#E9DCFF"/>
<path d="M13.4126 7.07031L7.89844 13.406H11.5745V17.9315L17.0887 11.5958H13.4126V7.07031Z" fill="#E9DCFF"/>
</svg>
