<svg width="25" height="25" viewBox="0 0 25 25" fill="none" xmlns="http://www.w3.org/2000/svg">
<path d="M20.5277 16.1515V8.62839L14.2585 5.10193M10.7477 5.10193L4.47839 8.62839V16.1515M5.98302 18.5025L12.5031 22.17L16.5154 19.9131L19.0231 18.5025" stroke="#E9DCFF" stroke-width="1.66027" stroke-linecap="round" stroke-linejoin="round"/>
<path d="M10.9931 10.5376L9.48846 11.4153V13.1707V14.9261L10.9931 15.8038L12.4977 16.6815L14.0023 15.8038L15.507 14.9261V13.1707V11.4153L14.0023 10.5376L12.4977 9.65991L10.9931 10.5376Z" stroke="#E9DCFF" stroke-width="1.66027" stroke-linecap="round" stroke-linejoin="round"/>
<path d="M12.4995 9.49752V5.93555" stroke="#E9DCFF" stroke-width="1.66027" stroke-linecap="round" stroke-linejoin="round"/>
<path d="M15.7013 14.9022L19.2121 16.9084" stroke="#E9DCFF" stroke-width="1.66027" stroke-linecap="round" stroke-linejoin="round"/>
<path d="M9.48229 14.9022L5.9715 16.9084" stroke="#E9DCFF" stroke-width="1.66027" stroke-linecap="round" stroke-linejoin="round"/>
<path d="M12.5027 5.48581C13.3337 5.48581 14.0074 4.81217 14.0074 3.98119C14.0074 3.15021 13.3337 2.47656 12.5027 2.47656C11.6718 2.47656 10.9981 3.15021 10.9981 3.98119C10.9981 4.81217 11.6718 5.48581 12.5027 5.48581Z" stroke="#E9DCFF" stroke-width="1.66027" stroke-linecap="round" stroke-linejoin="round"/>
<path d="M4.47337 19.3215C5.30435 19.3215 5.978 18.6479 5.978 17.8169C5.978 16.9859 5.30435 16.3123 4.47337 16.3123C3.64239 16.3123 2.96875 16.9859 2.96875 17.8169C2.96875 18.6479 3.64239 19.3215 4.47337 19.3215Z" stroke="#E9DCFF" stroke-width="1.66027" stroke-linecap="round" stroke-linejoin="round"/>
<path d="M20.5238 19.3215C21.3548 19.3215 22.0285 18.6479 22.0285 17.8169C22.0285 16.9859 21.3548 16.3123 20.5238 16.3123C19.6929 16.3123 19.0192 16.9859 19.0192 17.8169C19.0192 18.6479 19.6929 19.3215 20.5238 19.3215Z" stroke="#E9DCFF" stroke-width="1.66027" stroke-linecap="round" stroke-linejoin="round"/>
</svg>
