<svg width="25" height="25" viewBox="0 0 25 25" fill="none" xmlns="http://www.w3.org/2000/svg">
<path d="M3.17382 4.72656C2.49755 4.72656 1.95312 5.27925 1.95312 5.96576V18.3762C1.95312 19.0627 2.49755 19.6154 3.17382 19.6154H11.5885V22.1797H7.46171C6.95793 22.1797 6.54954 22.5881 6.54954 23.0919C6.54954 23.5957 6.95793 24.0041 7.46171 24.0041H17.5411C18.0448 24.0041 18.4532 23.5957 18.4532 23.0919C18.4532 22.5881 18.0449 22.1797 17.5411 22.1797H13.4199V19.6154H21.8262C22.5024 19.6154 23.0469 19.0627 23.0469 18.3762V5.96576C23.0469 5.27925 22.5024 4.72656 21.8262 4.72656H3.17382ZM3.75645 6.54209H21.2452V17.8051H3.75645V6.54209Z" fill="#E9DCFF"/>
<path d="M3.17382 4.72656C2.49755 4.72656 1.95312 5.27925 1.95312 5.96576V18.3762C1.95312 19.0627 2.49755 19.6154 3.17382 19.6154H11.5885V22.1797H7.46171C6.95793 22.1797 6.54954 22.5881 6.54954 23.0919C6.54954 23.5957 6.95793 24.0041 7.46171 24.0041H17.5411C18.0448 24.0041 18.4532 23.5957 18.4532 23.0919C18.4532 22.5881 18.0449 22.1797 17.5411 22.1797H13.4199V19.6154H21.8262C22.5024 19.6154 23.0469 19.0627 23.0469 18.3762V5.96576C23.0469 5.27925 22.5024 4.72656 21.8262 4.72656H3.17382ZM3.75645 6.54209H21.2452V17.8051H3.75645V6.54209Z" stroke="#E9DCFF"/>
<path d="M8.9871 10.0599L12.4628 8.54297L16.0184 10.0599L12.4628 11.8527L8.9871 10.0599Z" fill="#E9DCFF"/>
<path d="M8.9375 14.0912V10.7815L12.1335 12.4364V15.7461L8.9375 14.0912Z" fill="#E9DCFF"/>
<path d="M12.8775 12.4364L16.0735 10.7815V14.0912L12.8775 15.7461V12.4364Z" fill="#E9DCFF"/>
</svg>
