<svg width="23" height="23" viewBox="0 0 23 23" fill="none" xmlns="http://www.w3.org/2000/svg">
<g clip-path="url(#clip0_2_221)">
<circle cx="11.5" cy="11.5" r="11.5" fill="white"/>
<path d="M17.9455 13.4174V9.55274C18.1595 9.47419 18.3581 9.3485 18.5262 9.17569C18.9771 8.7201 19.1146 8.01314 18.8701 7.41615C18.6256 6.81131 18.0525 6.41856 17.403 6.41856C17.0515 6.41856 16.6923 6.55209 16.4096 6.77989L13.0474 4.80826C13.055 4.73757 13.0627 4.65902 13.0627 4.58047C13.0627 4.15629 12.9022 3.75568 12.6042 3.44933C11.9394 2.76594 10.7168 2.87591 10.1819 3.68499C9.95262 4.02276 9.86093 4.43122 9.91442 4.82397L6.58278 6.77204C6.30005 6.55209 5.94855 6.41856 5.5894 6.41856H5.58176C5.16913 6.41856 4.76414 6.59137 4.46612 6.90557C4.16811 7.21192 4 7.61253 4 8.02885C4 8.69653 4.43556 9.30923 5.03923 9.54488V13.4253C4.42792 13.6531 4 14.2579 4 14.9413C4 15.8289 4.71065 16.5516 5.58176 16.5516C5.91798 16.5673 6.29241 16.4259 6.57514 16.1981L9.91442 18.1541C9.89913 18.2326 9.89913 18.3112 9.89913 18.3897C9.89913 19.2773 10.6098 20 11.4809 20C11.8935 20 12.3062 19.8272 12.6042 19.5208C12.9022 19.2145 13.0703 18.8139 13.0703 18.3897C13.0703 18.3112 13.0627 18.2405 13.055 18.1619L16.4172 16.1903C16.6923 16.4181 17.0515 16.5438 17.403 16.5438C17.403 16.5438 17.403 16.5438 17.4106 16.5438C17.8232 16.5438 18.2282 16.371 18.5339 16.0567C18.8395 15.7425 19 15.3498 19 14.9256C18.9924 14.2501 18.5644 13.6452 17.9455 13.4174ZM16.998 8.0367C16.998 7.81676 17.189 7.62824 17.403 7.62824C17.5023 7.62824 17.6093 7.67537 17.6857 7.75392C17.7621 7.83247 17.8079 7.93459 17.8079 8.0367C17.8079 8.2645 17.6322 8.44517 17.403 8.44517C17.1661 8.43731 16.998 8.27236 16.998 8.0367ZM16.8146 13.441C16.6847 13.496 16.5548 13.5667 16.4401 13.6609L14.6673 12.6241V10.3304L16.4172 9.30137C16.5318 9.39563 16.6617 9.47419 16.8069 9.52917V13.441H16.8146ZM17.403 15.3498C17.3036 15.3498 17.1966 15.3027 17.1126 15.2241C17.0667 15.177 16.998 15.0827 16.998 14.9492C16.998 14.7607 17.1737 14.5407 17.403 14.5407C17.594 14.5407 17.8079 14.7135 17.8079 14.9492C17.8079 15.0513 17.7621 15.1534 17.6857 15.232C17.6093 15.3027 17.5099 15.3498 17.403 15.3498ZM5.87213 8.31163C5.79572 8.39018 5.68874 8.43731 5.5894 8.43731C5.48242 8.43731 5.37545 8.39018 5.29903 8.31163C5.22262 8.23308 5.18441 8.13097 5.18441 8.02885C5.18441 7.92673 5.23026 7.82462 5.30667 7.74607C5.38309 7.66752 5.49007 7.62038 5.5894 7.62038C5.811 7.62038 5.9944 7.80105 5.9944 8.02885C5.9944 8.13097 5.94855 8.23308 5.87213 8.31163ZM5.29903 14.6585C5.37545 14.58 5.48242 14.5329 5.58176 14.5329C5.81864 14.5329 5.98675 14.7449 5.98675 14.9413C5.98675 15.0434 5.94091 15.1456 5.86449 15.2241C5.61997 15.4755 5.16913 15.2712 5.16913 14.9413C5.17677 14.8392 5.22262 14.7371 5.29903 14.6585ZM8.22568 10.2518V12.6398L6.52165 13.6374C6.41467 13.5588 6.29241 13.4881 6.17015 13.441V9.53703C6.33826 9.47419 6.49109 9.37992 6.62099 9.2621L8.22568 10.2518ZM15.8365 7.82462C15.8212 7.96601 15.8212 8.11526 15.8365 8.2645L14.079 9.29352L12.0693 8.11526V6.08079C12.2145 6.0258 12.352 5.9394 12.4666 5.84514L15.8365 7.82462ZM13.5211 10.9824V12.7183L12.0693 13.5903V11.87L13.5211 10.9824ZM10.9078 11.8621V13.5824L9.37952 12.6712V10.9352L10.9078 11.8621ZM10.0596 9.96906L11.4733 9.11285L12.864 9.99262L11.4885 10.841L10.0596 9.96906ZM11.4809 4.98893C11.3816 4.98893 11.2746 4.9418 11.1982 4.86325C11.1523 4.82397 11.0759 4.72971 11.0759 4.58832C11.0759 4.36052 11.2593 4.17986 11.4809 4.17986C11.5802 4.17986 11.6872 4.22699 11.7636 4.30554C11.8095 4.35267 11.8859 4.44693 11.8859 4.58832C11.8859 4.77684 11.7101 4.98893 11.4809 4.98893ZM10.8849 8.1074L8.88283 9.23853L7.16353 8.18595C7.17117 8.06027 7.17117 7.93459 7.15588 7.81676L10.5028 5.85299C10.6174 5.94725 10.7473 6.0258 10.8925 6.08079V8.1074H10.8849ZM7.15588 15.1691C7.17881 15.0042 7.17117 14.8314 7.14824 14.6664L8.79878 13.7002L10.8925 14.9335V16.9051C10.755 16.9601 10.6251 17.0386 10.5028 17.1329L7.15588 15.1691ZM11.4809 17.9891C11.5879 17.9891 11.6872 18.0362 11.7713 18.1148C11.8171 18.1619 11.8859 18.2562 11.8859 18.3897C11.8859 18.6175 11.7025 18.7982 11.4809 18.7982C11.2593 18.7982 11.0759 18.6175 11.0759 18.3897C11.0759 18.1619 11.2593 17.9891 11.4809 17.9891ZM12.0693 14.9335L14.1554 13.7081L15.8441 14.6978C15.8212 14.8471 15.8212 15.0042 15.8441 15.1613L12.4743 17.1329C12.352 17.0386 12.2145 16.9522 12.0769 16.8972V14.9335H12.0693Z" fill="#450251"/>
</g>
<defs>
<clipPath id="clip0_2_221">
<rect width="23" height="23" fill="white"/>
</clipPath>
</defs>
</svg>
