<svg width="23" height="23" viewBox="0 0 23 23" fill="none" xmlns="http://www.w3.org/2000/svg">
<g clip-path="url(#clip0_2_215)">
<circle cx="11.5" cy="11.5" r="11.5" fill="white"/>
<path fill-rule="evenodd" clip-rule="evenodd" d="M8.08993 22.4858C8.49576 22.361 8.65365 21.696 8.65365 21.4427C8.65365 21.1748 8.63927 20.2867 8.63927 19.3421C5.7499 19.8637 5.0024 18.6513 4.7724 18.0169C4.64302 17.6927 4.0824 16.6917 3.59365 16.4239C3.19115 16.2124 2.61615 15.6908 3.57927 15.6767C4.4849 15.6626 5.13177 16.4944 5.3474 16.8327C6.3824 18.5386 8.03552 18.0592 8.69677 17.7632C8.7974 17.0301 9.09927 16.5367 9.4299 16.2547C6.87115 15.9728 4.1974 15 4.1974 10.6861C4.1974 9.45958 4.64302 8.44454 5.37615 7.65506C5.26115 7.3731 4.85865 6.21709 5.49115 4.66633C5.49115 4.66633 6.45427 4.37027 8.65365 5.82235C9.57365 5.56859 10.5511 5.44171 11.5286 5.44171C12.5061 5.44171 13.4836 5.56859 14.4036 5.82235C16.603 4.35618 17.5661 4.66633 17.5661 4.66633C18.1986 6.21709 17.7961 7.3731 17.6811 7.65506C18.4143 8.44454 18.8599 9.44548 18.8599 10.6861C18.8599 15.0141 16.1718 15.9728 13.613 16.2547C14.0299 16.6072 14.3893 17.2839 14.3893 18.3412C14.3893 19.8497 14.3749 21.0621 14.3749 21.4427C14.3749 21.6895 14.5248 22.3369 14.9078 22.48C13.341 22.9913 10.7871 23.3304 8.08993 22.4858Z" fill="#460152"/>
</g>
<defs>
<clipPath id="clip0_2_215">
<rect width="23" height="23" fill="white"/>
</clipPath>
</defs>
</svg>
