<svg width="25" height="25" viewBox="0 0 25 25" fill="none" xmlns="http://www.w3.org/2000/svg">
<path d="M9.17102 12.8481C9.17102 12.3214 9.2134 12.5639 6.44031 6.93958C5.87376 5.79082 4.25145 5.78854 3.68393 6.93958C0.887412 12.6121 0.954179 12.338 0.954179 12.8481C0.954179 14.2862 2.79316 15.4522 5.06228 15.4522C7.3314 15.4522 9.17102 14.2862 9.17102 12.8481ZM5.06228 7.63977L7.37345 12.3272H2.75111L5.06228 7.63977ZM23.0769 12.8481C23.0769 12.3214 23.1199 12.5639 20.3468 6.93958C19.7803 5.79082 18.158 5.78854 17.5904 6.93958C14.7939 12.6121 14.8607 12.338 14.8607 12.8481C14.8607 14.2862 16.6997 15.4522 18.9688 15.4522C21.2379 15.4522 23.0769 14.2862 23.0769 12.8481ZM16.6576 12.3272L18.9688 7.63977L21.28 12.3272H16.6576ZM18.6922 19.7289C18.6922 19.2572 18.3099 18.8748 17.8382 18.8748H12.8616V5.03562H19.406C19.8423 5.03562 20.196 4.68191 20.196 4.24559V4.24559C20.196 3.80927 19.8423 3.45557 19.406 3.45557H4.62507C4.18875 3.45557 3.83505 3.80927 3.83505 4.24559V4.24559C3.83505 4.68191 4.18875 5.03562 4.62507 5.03562H11.1695V18.8748H6.1929C5.72121 18.8748 5.33883 19.2572 5.33883 19.7289V19.7289C5.33883 20.2006 5.72121 20.583 6.1929 20.583H17.8382C18.3099 20.583 18.6922 20.2006 18.6922 19.7289V19.7289Z" fill="#E9DCFF"/>
</svg>
