<svg width="23" height="23" viewBox="0 0 23 23" fill="none" xmlns="http://www.w3.org/2000/svg">
<g clip-path="url(#clip0_2_224)">
<path d="M11.5 23C17.8513 23 23 17.8513 23 11.5C23 5.14873 17.8513 0 11.5 0C5.14873 0 0 5.14873 0 11.5C0 17.8513 5.14873 23 11.5 23Z" fill="white"/>
<path d="M19 12.1375C19 11.182 18.268 10.4147 17.3564 10.4147C16.9144 10.4147 16.5138 10.6029 16.2238 10.8925C15.105 10.0383 13.558 9.48811 11.8315 9.4302L12.5773 5.73837L15.0221 6.28852C15.0497 6.94002 15.5608 7.46122 16.1961 7.46122C16.8453 7.46122 17.3702 6.91107 17.3702 6.23061C17.3702 5.55016 16.8453 5 16.1961 5C15.7403 5 15.3398 5.27508 15.1464 5.68045L12.4116 5.07239C12.3425 5.05791 12.2597 5.07239 12.1906 5.11582C12.1215 5.15925 12.0801 5.23164 12.0663 5.30403L11.2376 9.41572C9.48343 9.47363 7.92265 10.0093 6.77624 10.878C6.48619 10.5884 6.08563 10.4002 5.64365 10.4002C4.73204 10.4002 4 11.1675 4 12.1231C4 12.818 4.40055 13.4261 4.96685 13.6867C4.93923 13.8604 4.92541 14.0341 4.92541 14.2079C4.92541 16.8573 7.8674 19 11.5 19C15.1326 19 18.0746 16.8573 18.0746 14.2079C18.0746 14.0341 18.0608 13.8604 18.0331 13.6867C18.5994 13.4405 19 12.847 19 12.1375ZM7.74309 13.3681C7.74309 12.6877 8.26795 12.1375 8.91713 12.1375C9.5663 12.1375 10.0912 12.6877 10.0912 13.3681C10.0912 14.0486 9.5663 14.5988 8.91713 14.5988C8.26795 14.5988 7.74309 14.0486 7.74309 13.3681ZM14.2762 16.6112C13.4751 17.4509 11.942 17.5088 11.4862 17.5088C11.0304 17.5088 9.49724 17.4509 8.69613 16.6112C8.57182 16.4809 8.57182 16.2782 8.69613 16.1624C8.82044 16.0321 9.01381 16.0321 9.12431 16.1624C9.63536 16.698 10.7127 16.8718 11.4724 16.8718C12.232 16.8718 13.3232 16.6836 13.8343 16.1479C13.9586 16.0176 14.1519 16.0176 14.2624 16.1479C14.4006 16.2927 14.4006 16.4953 14.2762 16.6112ZM14.0691 14.5988C13.4199 14.5988 12.895 14.0486 12.895 13.3681C12.895 12.6877 13.4199 12.1375 14.0691 12.1375C14.7182 12.1375 15.2431 12.6877 15.2431 13.3681C15.2431 14.0486 14.7182 14.5988 14.0691 14.5988Z" fill="#460152"/>
</g>
<defs>
<clipPath id="clip0_2_224">
<rect width="23" height="23" fill="white"/>
</clipPath>
</defs>
</svg>
