<svg width="25" height="25" viewBox="0 0 25 25" fill="none" xmlns="http://www.w3.org/2000/svg">
<path d="M19.1755 9.62924C19.1345 9.62924 19.0936 9.62924 19.0527 9.62924C17.2686 9.5726 15.9375 8.19434 15.9375 6.49512C15.9375 4.75814 17.3535 3.35156 19.0811 3.35156C20.8086 3.35156 22.2246 4.76758 22.2246 6.49512C22.2154 8.15375 20.8503 9.62924 19.1755 9.62924ZM19.0811 4.75814C18.1276 4.75814 17.3535 5.53223 17.3535 6.48568C17.3535 7.42025 18.0804 8.17546 19.015 8.21323C19.0527 8.21475 19.108 8.21719 19.1849 8.21323C20.1006 8.16602 20.8086 7.41081 20.818 6.48568C20.818 5.53223 20.0439 4.75814 19.0811 4.75814Z" fill="#E9DCFF"/>
<path d="M19.18 16.5871C18.8118 16.5871 18.4437 16.5588 18.0755 16.4927C17.6885 16.4266 17.4336 16.0584 17.4997 15.6714C17.5658 15.2843 17.9339 15.0295 18.321 15.0955C19.4821 15.2938 20.7093 15.0767 21.5306 14.5291C21.9743 14.2365 22.2103 13.8683 22.2103 13.5002C22.2103 13.132 21.9648 12.7733 21.5306 12.4806C20.7093 11.9331 19.4632 11.716 18.2926 11.9237C17.9056 11.9992 17.5374 11.7349 17.4714 11.3478C17.4053 10.9608 17.6602 10.5926 18.0472 10.5265C19.5859 10.2528 21.1813 10.5454 22.3141 11.3006C23.1449 11.8576 23.6263 12.6506 23.6263 13.5002C23.6263 14.3403 23.1543 15.1428 22.3141 15.7092C21.4551 16.2756 20.3411 16.5871 19.18 16.5871Z" fill="#E9DCFF"/>
<path d="M7.79753 9.63086C6.09831 9.57422 4.76725 8.19596 4.75781 6.49674C4.75781 4.75976 6.17383 3.34375 7.90137 3.34375C9.62891 3.34375 11.0449 4.75977 11.0449 6.48731C11.0449 8.19597 9.71387 9.57422 8.01465 9.63086C7.94228 9.63086 7.8699 9.63086 7.79753 9.63086ZM8.07129 8.22428C8.91146 8.18652 9.64779 7.43131 9.64779 6.49674C9.64779 5.54329 8.8737 4.7692 7.92025 4.7692C6.9668 4.7692 6.19271 5.54329 6.19271 6.49674C6.19271 7.42187 6.91016 8.16764 7.82585 8.22428C7.90112 8.22428 7.99523 8.2277 8.07129 8.22428Z" fill="#E9DCFF"/>
<path d="M7.80566 16.5871C6.64453 16.5871 5.5306 16.2756 4.67155 15.7092C3.84082 15.1522 3.35938 14.3498 3.35938 13.5002C3.35938 12.66 3.84082 11.8576 4.67155 11.3006C5.80436 10.5454 7.39974 10.2528 8.93848 10.5265C9.32552 10.5926 9.5804 10.9608 9.51432 11.3478C9.44824 11.7349 9.08008 11.9992 8.69304 11.9237C7.52246 11.716 6.28581 11.9331 5.45508 12.4806C5.01139 12.7733 4.77539 13.132 4.77539 13.5002C4.77539 13.8683 5.02083 14.2365 5.45508 14.5291C6.27637 15.0767 7.50358 15.2938 8.66471 15.0955C9.05176 15.0295 9.41992 15.2938 9.486 15.6714C9.55208 16.0584 9.2972 16.4266 8.91016 16.4927C8.54199 16.5588 8.17383 16.5871 7.80566 16.5871Z" fill="#E9DCFF"/>
<path d="M13.5114 16.68C13.4705 16.68 13.4296 16.68 13.3887 16.68C11.6045 16.6234 10.2734 15.2451 10.2734 13.5459C10.2734 11.8089 11.6895 10.4023 13.417 10.4023C15.1445 10.4023 16.5605 11.8184 16.5605 13.5459C16.5514 15.2045 15.1862 16.68 13.5114 16.68ZM13.417 11.8089C12.4635 11.8089 11.6895 12.583 11.6895 13.5365C11.6895 14.471 12.4163 15.2262 13.3509 15.264C13.3604 15.2546 13.4359 15.2546 13.5208 15.264C14.4365 15.2168 15.1445 14.4616 15.154 13.5365C15.154 12.5925 14.3799 11.8089 13.417 11.8089Z" fill="#E9DCFF"/>
<path d="M13.5104 23.6504C12.3776 23.6504 11.2448 23.3578 10.3669 22.763C9.53613 22.2061 9.05469 21.4131 9.05469 20.5635C9.05469 19.7233 9.52669 18.9115 10.3669 18.3545C12.1322 17.1839 14.8981 17.1839 16.654 18.3545C17.4847 18.9115 17.9661 19.7044 17.9661 20.554C17.9661 21.3942 17.4941 22.2061 16.654 22.763C15.776 23.3483 14.6432 23.6504 13.5104 23.6504ZM11.1504 19.544C10.7067 19.8366 10.4707 20.2048 10.4707 20.5729C10.4707 20.9411 10.7161 21.2998 11.1504 21.5925C12.4248 22.4515 14.5866 22.4515 15.861 21.5925C16.3047 21.2998 16.5407 20.9317 16.5407 20.5635C16.5407 20.1953 16.2953 19.8366 15.861 19.544C14.596 18.6849 12.4342 18.6943 11.1504 19.544Z" fill="#E9DCFF"/>
</svg>
