<svg width="23" height="23" viewBox="0 0 23 23" fill="none" xmlns="http://www.w3.org/2000/svg">
<g clip-path="url(#clip0_2_227)">
<circle cx="11.5" cy="11.5" r="11.5" fill="white"/>
<path d="M18.2802 8.82429C17.6263 10.3019 15.6263 14.9822 14.2918 18.0328C14.2899 18.0342 13.9412 18.0316 13.9412 18.0316L11.8365 13.0742C11.0023 14.7102 10.0781 16.4109 9.28775 18.0292C9.28305 18.0375 8.9054 18.033 8.90493 18.0278C7.69669 15.2076 6.44399 12.4059 5.2294 9.58782C4.94822 8.89888 3.96187 7.79088 3.28681 7.79724C3.28681 7.71724 3.28305 7.53865 3.2821 7.43065L7.44257 7.43018L7.43928 7.79041C6.95081 7.813 6.10657 8.12476 6.3254 8.66406C6.91175 9.93018 8.98799 14.8351 9.54916 16.0803C9.94069 15.3139 11.0341 13.2711 11.4845 12.4076C11.1315 11.6834 9.96516 8.97935 9.61552 8.29841C9.35175 7.85441 8.68987 7.80006 8.18022 7.79229C8.18022 7.67865 8.1861 7.59112 8.18399 7.43512L11.8412 7.44641V7.77865C11.3461 7.79229 10.8774 7.97653 11.0899 8.44994C11.5819 9.47112 11.8692 10.1982 12.3207 11.1426C12.4649 10.8659 13.2042 9.34923 13.5567 8.54876C13.7696 8.01653 13.4515 7.81723 12.5609 7.79323C12.5727 7.7057 12.5649 7.52994 12.5727 7.44618L15.7313 7.44923L15.7327 7.77888C15.1522 7.80147 14.5513 8.11065 14.2376 8.59065L12.7167 11.745C12.8835 12.1622 14.3459 15.4109 14.4998 15.7711L17.6442 8.513C17.4205 7.92547 16.7068 7.79418 16.4278 7.78782C16.4296 7.69418 16.4301 7.55135 16.4306 7.43206L19.7132 7.44147L19.7179 7.45794L19.7125 7.78594C18.9922 7.80782 18.5468 8.193 18.2802 8.82429Z" fill="#460152"/>
</g>
<defs>
<clipPath id="clip0_2_227">
<rect width="23" height="23" fill="white"/>
</clipPath>
</defs>
</svg>
