<svg xmlns="http://www.w3.org/2000/svg" xml:space="preserve" width="175" height="72" style="shape-rendering:geometricPrecision;text-rendering:geometricPrecision;image-rendering:optimizeQuality;fill-rule:evenodd;clip-rule:evenodd" viewBox="0 0 164.971 66.245">
<defs>
  <style>.fil0{fill:#fff}</style>
</defs>
<g id="NETWORK">
  <path id="Text_NETWORK" d="M79.512 57.388h-1.236l2.181-12.352h.953l5.234 10.044 1.757-10.044h1.235l-2.18 12.352h-.957l-5.214-10.04zm10.938 0 2.182-12.352h7.149l-.196 1.164h-5.93l-.763 4.378h5.471l-.212 1.165h-5.472l-.78 4.484H97.9l-.212 1.16zM100.914 46.2l.195-1.164h8.826l-.195 1.164h-3.813l-1.968 11.188h-1.235l1.968-11.188zm11.482 11.188-1.4-12.352h1.217l1.191 10.732 5.111-10.732h1.447l1.333 10.732 4.987-10.732h1.306l-5.763 12.352h-1.485l-1.332-10.728-5.127 10.728zm20.526-.985q2.26 0 3.938-1.447 1.695-1.465 2.086-3.654.088-.511.089-.989 0-1.553-1.091-2.912-1.076-1.377-3.318-1.377-2.225 0-3.92 1.5-1.696 1.5-2.069 3.69a6 6 0 0 0-.088 1.006q-.002 1.536 1.073 2.86 1.076 1.323 3.3 1.323m-.213 1.2q-2.665 0-4.041-1.711-1.375-1.73-1.374-3.655 0-.582.108-1.2.462-2.666 2.563-4.43 2.12-1.783 4.874-1.783 1.764 0 3.106.935 1.34.918 1.833 2.19.512 1.269.51 2.382 0 .566-.107 1.147-.48 2.666-2.58 4.396-2.103 1.73-4.892 1.73m17.689-8.86q.053-.266.053-.495 0-.741-.546-1.394-.528-.654-1.553-.654h-3.725l-.887 5.084h3.707q1.042 0 1.89-.741.866-.759 1.06-1.8m-1.85-3.707q1.464 0 2.293 1.041t.828 2.153q0 .336-.071.689a4.07 4.07 0 0 1-1.114 2.171 4.4 4.4 0 0 1-2.155 1.218l2.094 5.08h-1.288l-2.024-4.939h-3.583l-.869 4.939h-1.235l2.18-12.352zm3.826 12.352 2.182-12.352h1.235l-.994 5.683 6.607-5.683h1.657l-7.01 6.09 4.933 6.262h-1.465l-4.828-6.104-1.082 6.104z" class="fil0" opacity=".6" />
</g>
<g id="Text">
  <path d="m79.726 14.827-1.45 18.295h7.057l.5-6.31zM97.445 8.863c-2.056 0-3.93 1.251-4.838 3.034l-1.483 2.91-3.028-5.944h-7.898l10.926 21.443 6.748-13.243-1.272 16.06h7.056l1.923-24.26zM111.967 14.827l-1.45 18.295h7.057l.5-6.31zM129.686 8.863c-2.056 0-3.93 1.251-4.838 3.034l-1.483 2.91-3.028-5.944h-7.898l10.926 21.443 6.748-13.243-1.272 16.06h7.056l1.923-24.26zM146.269 22.55l3.944 7.756-1.435 2.816h-7.885zM145.557 8.863h5.144l12.36 24.26h-7.897l-10.958-21.507c-.774-1.52-.17-2.753 1.351-2.753M159.595 19.435l-3.943-7.756 1.435-2.816h7.884z" class="fil0" />
</g>
<g id="Logo">
  <circle cx="33.122" cy="33.122" r="33.122" style="fill:#5e289f" />
  <path d="m25.174 34.981 4.704 9.252-1.712 3.36H18.76zM24.324 18.652h6.136l14.746 28.941h-9.421L22.712 21.937c-.924-1.814-.203-3.286 1.612-3.286M41.071 31.264l-4.704-9.252 1.712-3.36h9.406zM25.927 51.327h3.886l-.48 6.055h-3.886zM33.547 51.327h3.886l-.48 6.055h-3.886zM29.292 8.863h3.886l-.48 6.055h-3.886zM36.912 8.863h3.886l-.48 6.055h-3.886z" class="fil0" />
</g>
</svg>
