<svg width="176" height="70" viewBox="0 0 176 70" fill="none" xmlns="http://www.w3.org/2000/svg">
<path d="M116.836 10.1099L112.124 36.9258H105.995L108.753 21.2193L99.5973 32.7119H98.9077L94.1958 21.1427L91.4376 36.9258H85.3082L90.0202 10.1099H96.1495L100.785 22.2153L110.17 10.1099H116.836ZM148.644 10.1099L143.932 36.9258H137.803L140.561 21.2193L131.405 32.7119H130.716L126.004 21.1427L123.246 36.9258H117.116L121.828 10.1099H127.958L132.593 22.2153L141.978 10.1099H148.644ZM174.323 10.1099L164.363 23.4412L169.994 36.9258H163.328L160.072 29.1875L154.287 36.9258H147.009L157.467 22.9432L152.104 10.1099H158.769L161.758 17.1969L167.044 10.1099H174.323Z" fill="white"/>
<path opacity="0.6" d="M81.0291 61.8438L83.3976 48.3647H84.4374L90.1564 59.3212L92.0627 48.3647H93.4107L91.0422 61.8438H90.0024L84.3026 50.8872L82.3771 61.8438H81.0291ZM104.265 49.6355H97.795L96.967 54.411H102.936L102.705 55.6819H96.7359L95.8886 60.5729H102.436L102.205 61.8438H94.3097L96.6781 48.3647H104.477L104.265 49.6355ZM115.554 48.3647L115.342 49.6355H111.183L109.046 61.8438H107.698L109.835 49.6355H105.714L105.926 48.3647H115.554ZM118.251 61.8438L116.71 48.3647H118.039L119.348 60.0722L124.913 48.3647H126.492L127.956 60.0722L133.386 48.3647H134.811L128.533 61.8438H126.916L125.452 50.1362L119.868 61.8438H118.251ZM140.409 62.0748C138.47 62.0748 137.001 61.4522 135.999 60.207C134.998 58.949 134.497 57.6203 134.497 56.221C134.497 55.7974 134.536 55.3609 134.613 54.9116C134.947 52.9732 135.877 51.3622 137.405 50.0784C138.945 48.7819 140.717 48.1336 142.72 48.1336C144.003 48.1336 145.133 48.4738 146.109 49.1541C147.084 49.8217 147.752 50.6176 148.111 51.5419C148.484 52.4662 148.67 53.3327 148.67 54.1414C148.67 54.5522 148.631 54.9694 148.554 55.393C148.208 57.3315 147.27 58.9297 145.743 60.1877C144.215 61.4458 142.437 62.0748 140.409 62.0748ZM140.64 60.7654C142.283 60.7654 143.714 60.2391 144.934 59.1864C146.166 58.121 146.924 56.7923 147.206 55.2005C147.27 54.8282 147.302 54.4688 147.302 54.1222C147.302 52.9925 146.905 51.9334 146.109 50.9449C145.326 49.9436 144.119 49.443 142.489 49.443C140.871 49.443 139.446 49.9886 138.214 51.0797C136.981 52.1709 136.23 53.5124 135.961 55.1042C135.897 55.4893 135.865 55.8552 135.865 56.2018C135.865 57.3186 136.256 58.3584 137.039 59.3212C137.822 60.284 139.022 60.7654 140.64 60.7654ZM157.674 48.3647C158.74 48.3647 159.574 48.7434 160.177 49.5008C160.781 50.2582 161.082 51.0412 161.082 51.85C161.082 52.0939 161.057 52.3442 161.005 52.6009C160.851 53.4996 160.447 54.289 159.792 54.9694C159.137 55.6369 158.354 56.0798 157.443 56.2981L159.734 61.8438H158.329L156.114 56.4521H152.205L151.262 61.8438H149.914L152.282 48.3647H157.674ZM159.696 52.4084C159.734 52.2158 159.754 52.0361 159.754 51.8692C159.754 51.3301 159.555 50.823 159.157 50.348C158.772 49.873 158.207 49.6355 157.462 49.6355H153.399L152.436 55.1812H156.48C157.238 55.1812 157.924 54.9116 158.541 54.3725C159.17 53.8205 159.555 53.1658 159.696 52.4084ZM173.509 48.3647L165.865 55.0079L171.256 61.8438H169.658L164.382 55.1812L163.207 61.8438H161.859L164.228 48.3647H165.576L164.497 54.565L171.699 48.3647H173.509Z" fill="white"/>
<g clip-path="url(#clip0_2_153)">
<circle cx="35" cy="35" r="35" fill="#5E289F"/>
<path fill-rule="evenodd" clip-rule="evenodd" d="M30.3223 15.8008L30.8326 9.33594H35.1273L34.621 15.8008H30.3223ZM27.2949 54.1557L26.7812 60.6635H31.1079L31.6175 54.1557H27.2949ZM35.3731 54.1557L34.8594 60.6636H39.186L39.6956 54.1557H35.3731ZM42.6991 15.8008L43.2054 9.33597H38.9108L38.4005 15.8008H42.6991Z" fill="white"/>
<path d="M32.1514 19.6523H25.7912C24.1594 19.6523 23.1021 21.3745 23.8404 22.8296L37.7722 50.287H47.6953L32.1514 19.6523Z" fill="white"/>
<path fill-rule="evenodd" clip-rule="evenodd" d="M43.3642 33.0175L38.389 23.2123L40.1835 19.6562H50.1066L43.3642 33.0175Z" fill="white"/>
<path fill-rule="evenodd" clip-rule="evenodd" d="M26.6107 37L31.5683 46.7707L29.7825 50.2845H19.8594L26.6107 37Z" fill="white"/>
</g>
<defs>
<clipPath id="clip0_2_153">
<rect width="70" height="70" fill="white"/>
</clipPath>
</defs>
</svg>
