<?xml version="1.0" encoding="UTF-8" standalone="no"?>
<!DOCTYPE svg PUBLIC "-//W3C//DTD SVG 1.1//EN" "http://www.w3.org/Graphics/SVG/1.1/DTD/svg11.dtd">
<svg width="100%" height="100%" viewBox="0 0 512 512" version="1.1" xmlns="http://www.w3.org/2000/svg" xmlns:xlink="http://www.w3.org/1999/xlink" xml:space="preserve" xmlns:serif="http://www.serif.com/" style="fill-rule:evenodd;clip-rule:evenodd;stroke-linejoin:round;stroke-miterlimit:2;">
    <g transform="matrix(6.67529,0,0,6.67529,22.3648,22.3648)">
        <circle cx="35" cy="35" r="35" style="fill:rgb(94,40,159);"/>
    </g>
    <g transform="matrix(6.67529,0,0,6.67529,22.3648,22.3648)">
        <path d="M30.322,15.801L30.833,9.336L35.127,9.336L34.621,15.801L30.322,15.801ZM27.295,54.156L26.781,60.664L31.108,60.664L31.618,54.156L27.295,54.156ZM35.373,54.156L34.859,60.664L39.186,60.664L39.696,54.156L35.373,54.156ZM42.699,15.801L43.205,9.336L38.911,9.336L38.401,15.801L42.699,15.801Z" style="fill:white;"/>
    </g>
    <g transform="matrix(6.67529,0,0,6.67529,22.3648,22.3648)">
        <path d="M32.151,19.652L25.791,19.652C24.159,19.652 23.102,21.375 23.84,22.83L37.772,50.287L47.695,50.287L32.151,19.652Z" style="fill:white;fill-rule:nonzero;"/>
    </g>
    <g transform="matrix(6.67529,0,0,6.67529,22.3648,22.3648)">
        <path d="M43.364,33.018L38.389,23.212L40.184,19.656L50.107,19.656L43.364,33.018Z" style="fill:white;"/>
    </g>
    <g transform="matrix(6.67529,0,0,6.67529,22.3648,22.3648)">
        <path d="M26.611,37L31.568,46.771L29.783,50.285L19.859,50.285L26.611,37Z" style="fill:white;"/>
    </g>
</svg>
